<svg t="1779617164194" class="icon" viewBox="0 0 1024 1024" version="1.1" xmlns="http://www.w3.org/2000/svg" p-id="5394" width="1024" height="1024"><path d="M804.571429 146.285714a73.142857 73.142857 0 0 1 73.142857 73.142857l0.036571 245.540572a294.509714 294.509714 0 0 0-73.142857-59.977143L804.571429 219.428571H219.428571v585.142858h185.526858a294.509714 294.509714 0 0 0 60.013714 73.179428L219.428571 877.714286a73.142857 73.142857 0 0 1-73.142857-73.142857V219.428571a73.142857 73.142857 0 0 1 73.142857-73.142857h585.142858z m-146.285715 292.571429c121.051429 0 219.428571 98.377143 219.428572 219.428571s-98.377143 219.428571-219.428572 219.428572-219.428571-98.377143-219.428571-219.428572 98.377143-219.428571 219.428571-219.428571z m0 73.142857c-13.385143 0-39.643429 32.182857-39.643428 49.627429v44.178285l-91.245715 59.830857a34.084571 34.084571 0 0 0-15.140571 24.246858l-0.256 4.278857c0 1.828571 1.024 3.474286 2.779429 4.571428a7.862857 7.862857 0 0 0 5.997714 0.804572l93.476571-16.457143 4.388572 62.610286-27.867429 41.325714a21.321143 21.321143 0 0 0-3.364571 8.777143l-0.256 3.145143c0 1.462857 0.731429 2.925714 1.974857 3.986285a7.826286 7.826286 0 0 0 7.314286 1.243429l61.842285-25.051429 61.696 24.978286c2.084571 0.731429 4.498286 0.585143 6.4-0.438857a5.485714 5.485714 0 0 0 3.035429-4.754286 20.845714 20.845714 0 0 0-3.657143-11.812571l-28.525714-41.398857 4.388571-62.573715 93.988572 16.603429a7.826286 7.826286 0 0 0 6.144-0.731429 5.485714 5.485714 0 0 0 2.816-4.608 35.035429 35.035429 0 0 0-15.36-29.001143l-87.625143-59.574857v-44.178285C701.586286 544.182857 671.012571 512 658.285714 512z m-274.285714-73.142857a18.285714 18.285714 0 0 1 18.285714 18.285714v36.571429a18.285714 18.285714 0 0 1-18.285714 18.285714h-109.714286a18.285714 18.285714 0 0 1-18.285714-18.285714v-36.571429a18.285714 18.285714 0 0 1 18.285714-18.285714h109.714286z m146.285714-146.285714a18.285714 18.285714 0 0 1 18.285715 18.285714v36.571428a18.285714 18.285714 0 0 1-18.285715 18.285715h-256a18.285714 18.285714 0 0 1-18.285714-18.285715v-36.571428a18.285714 18.285714 0 0 1 18.285714-18.285714h256z" fill="#2c2c2c" p-id="5395"></path></svg>
